# xmcd CD database file
#
# Track frame offsets:
#	182
#	19782
#	31182
#	48670
#	63257
#	76797
#	89782
#	109965
#	129432
#	141382
#	154382
#	167382
#
# Disc length: 2324 seconds
#
# Revision: 0
# Processed by: cddbd v1.4PL0 Copyright (c) Steve Scherf et al.
# Submitted via: CDex 1.50
#
DISCID=9d09120c
DTITLE=Safir - Safir
DYEAR=1900
DGENRE=Jazz
TTITLE0=Vildi elska
TTITLE1=Talv
TTITLE2=Gluggaop
TTITLE3=Tú ert so deilig!
TTITLE4=Spegilsprát
TTITLE5=Høgra Jam
TTITLE6=Heitar tíðir
TTITLE7=Mánin
TTITLE8=Men eg visti...
TTITLE9=Vaksin
TTITLE10=Alfagra Landið
TTITLE11=Endasangurin
EXTD=
EXTT0=
EXTT1=
EXTT2=
EXTT3=
EXTT4=
EXTT5=
EXTT6=
EXTT7=
EXTT8=
EXTT9=
EXTT10=
EXTT11=
PLAYORDER=
